<svg width="24" height="24" viewBox="0 0 24 24" fill="none" xmlns="http://www.w3.org/2000/svg">
<path fill-rule="evenodd" clip-rule="evenodd" d="M5.25 3C4.00736 3 3 4.00736 3 5.25V18.75C3 19.9926 4.00736 21 5.25 21H18.75C19.9926 21 21 19.9926 21 18.75V5.25C21 4.00736 19.9926 3 18.75 3H5.25ZM15.2823 11.9803C15.2598 10.5844 16.3236 9.84426 16.5519 9.68542C16.5744 9.66977 16.5888 9.65976 16.5932 9.65532C15.8759 8.61649 14.7629 8.46808 14.3671 8.44335C13.7903 8.38263 13.2228 8.6107 12.7618 8.79596C12.4716 8.91258 12.2237 9.01223 12.0421 9.01223C11.842 9.01223 11.5925 8.91354 11.3108 8.80212C10.9312 8.65193 10.4931 8.47862 10.0387 8.49282C8.99982 8.51755 8.05992 9.08644 7.51577 10.0263C6.42747 11.8814 7.24369 14.6269 8.28253 16.1357C8.80195 16.8777 9.39556 17.6939 10.2118 17.6692C10.5681 17.6577 10.8229 17.5501 11.0879 17.4381C11.3933 17.3092 11.7121 17.1745 12.2153 17.1745C12.7018 17.1745 13.0027 17.307 13.2931 17.4349C13.5636 17.5541 13.825 17.6692 14.2187 17.6692C15.0597 17.6445 15.5791 16.9272 16.0738 16.1851C16.5837 15.4416 16.8198 14.7345 16.892 14.5184C16.9038 14.483 16.9113 14.4607 16.9147 14.4537C16.9128 14.4518 16.9013 14.4465 16.8817 14.4373C16.6496 14.329 15.2823 13.6911 15.2823 11.9803ZM14.3919 5.5C14.4661 6.21729 14.1693 6.93458 13.7488 7.454C13.3283 7.97341 12.611 8.36916 11.9679 8.29496C11.869 7.6024 12.2153 6.86038 12.611 6.41516C13.0315 5.89575 13.7735 5.52473 14.3919 5.5Z" fill="#202020"/>
</svg>
