<svg width="24" height="24" viewBox="0 0 24 24" fill="none" xmlns="http://www.w3.org/2000/svg">
<path fill-rule="evenodd" clip-rule="evenodd" d="M5.25 3C4.00736 3 3 4.00736 3 5.25V18.75C3 19.9926 4.00736 21 5.25 21H18.75C19.9926 21 21 19.9926 21 18.75V5.25C21 4.00736 19.9926 3 18.75 3H5.25ZM8.58749 12C8.58749 11.6062 8.65311 11.2406 8.76561 10.8844L8.76561 10.8844C9.23436 9.46875 10.5562 8.45625 12.1406 8.45625C12.9844 8.45625 13.7531 8.75625 14.3531 9.24375L16.0969 7.5C15.0281 6.57187 13.6687 6 12.1406 6C9.75937 6 7.72499 7.35937 6.74061 9.3375V9.33749C6.34686 10.1437 6.13124 11.0437 6.13124 12C6.13124 12.9562 6.35624 13.8562 6.74999 14.6531L8.77499 13.1062C8.65311 12.7594 8.58749 12.3844 8.58749 12ZM12.1406 15.5438C10.5656 15.5438 9.23436 14.5219 8.77499 13.1156L6.74061 14.6625C7.72499 16.6406 9.75936 18 12.1406 18C13.6031 18 15.0094 17.475 16.0594 16.5L14.1281 15.0188C13.5937 15.3656 12.9094 15.5438 12.1406 15.5438ZM17.7281 10.9125C17.8125 11.2594 17.8687 11.6438 17.8687 12C17.8687 13.9594 17.1562 15.4781 16.0594 16.5L14.1375 15.0188C14.7656 14.625 15.2063 14.0156 15.3656 13.2281H12.1406V10.9125H17.7281Z" fill="#202020"/>
</svg>
