<svg width="24" height="24" viewBox="0 0 24 24" fill="none" xmlns="http://www.w3.org/2000/svg">
<path fill-rule="evenodd" clip-rule="evenodd" d="M5.25 3C4.00736 3 3 4.00736 3 5.25V18.75C3 19.9926 4.00736 21 5.25 21H18.75C19.9926 21 21 19.9926 21 18.75V5.25C21 4.00736 19.9926 3 18.75 3H5.25ZM13.5574 14.9578V11.7738C13.6738 11.854 13.7865 11.9312 13.8973 12.0069L13.8974 12.007C14.0017 12.0784 14.1043 12.1486 14.2066 12.2191C14.3965 12.3492 14.4281 12.348 14.6238 12.218C15.1641 11.8588 15.7043 11.4999 16.2445 11.141L16.2498 11.1375L16.2525 11.1357C16.7936 10.7763 17.3347 10.4168 17.8758 10.057C17.9014 10.0396 17.9278 10.0237 17.961 10.0035L17.961 10.0035L17.9906 9.98554C17.992 10.0042 17.9936 10.0211 17.9952 10.0369C17.9977 10.063 18 10.086 18 10.1086L18.0003 11.4937C18.0005 12.4172 18.0008 13.341 18 14.2652C18 14.7258 17.7668 14.9578 17.3086 14.9578H13.6945H13.5574ZM13.6887 8.5418H13.5656C13.5628 8.55077 13.5603 8.55762 13.5584 8.56312C13.5547 8.57343 13.5527 8.57905 13.5527 8.58516C13.5516 9.3293 13.5504 10.0734 13.5539 10.8176C13.5539 10.8586 13.5926 10.9149 13.6301 10.9395C13.7525 11.0196 13.8763 11.0972 14.0001 11.1749C14.1028 11.2393 14.2055 11.3037 14.3074 11.3695C14.3848 11.4199 14.4527 11.4176 14.5277 11.3637C14.6225 11.2962 14.719 11.232 14.8156 11.1677L14.8156 11.1677L14.8157 11.1677L14.8157 11.1676C14.86 11.1382 14.9043 11.1087 14.9484 11.0789L15.769 10.5267L15.7694 10.5264L15.7694 10.5264C16.4798 10.0482 17.1901 9.57006 17.9016 9.09376C17.9801 9.04219 18.0117 8.99532 17.9801 8.89923C17.9086 8.68126 17.7328 8.5418 17.5055 8.5418H13.6887ZM12.9926 18C10.6594 17.5113 8.33555 17.025 6.00352 16.5375V16.384L6.00358 14.9045C6.00374 12.4387 6.00391 9.97287 6 7.50703C6 7.38398 6.03281 7.3418 6.15234 7.31953C8.0168 6.96328 9.88125 6.60234 11.7457 6.24141C12.0312 6.18528 12.3168 6.13027 12.6066 6.07444L12.9926 6V18ZM11.1328 11.9883C11.1281 11.5008 11.0613 11.0508 10.8199 10.6418C10.6254 10.3125 10.3629 10.0629 9.98438 9.95508C9.24844 9.74531 8.54531 10.0898 8.19844 10.834C7.97695 11.3109 7.92891 11.8172 7.97227 12.3352C8.00977 12.784 8.13984 13.1988 8.4293 13.5539C9.00469 14.2594 10.0512 14.2641 10.6348 13.5633C11.0203 13.0992 11.1258 12.5473 11.1328 11.9883ZM8.97188 11.0168C8.77501 11.3144 8.72813 11.6508 8.7293 11.9988C8.7293 12.3187 8.76915 12.6305 8.93438 12.9105C9.07384 13.1496 9.27423 13.2984 9.56251 13.2926C9.84844 13.2867 10.0629 13.1414 10.1742 12.8883C10.2598 12.6926 10.3207 12.4769 10.3477 12.2648C10.3957 11.8828 10.3676 11.5008 10.2059 11.141C10.1109 10.9312 9.96798 10.7637 9.73243 10.7051C9.42891 10.6289 9.15352 10.7414 8.97188 11.0168Z" fill="#202020"/>
</svg>
