<svg width="24" height="24" viewBox="0 0 24 24" fill="none" xmlns="http://www.w3.org/2000/svg">
<path fill-rule="evenodd" clip-rule="evenodd" d="M3 5.25C3 4.00736 4.00736 3 5.25 3H18.75C19.9926 3 21 4.00736 21 5.25V18.75C21 19.9926 19.9926 21 18.75 21H5.25C4.00736 21 3 19.9926 3 18.75V5.25ZM12.6313 17L12.5524 12.7512C13.39 11.3011 14.1044 10.0787 14.695 9.08534C14.7357 9.01743 14.8346 8.84916 14.9924 8.58053C15.1502 8.3119 15.2643 8.11959 15.3354 8.00361C15.4064 7.88762 15.5065 7.73017 15.6358 7.53185C15.7651 7.33353 15.8865 7.15625 16 7C15.7651 7.05589 15.5344 7.08413 15.308 7.08413C15.0938 7.08413 14.8771 7.05589 14.6586 7C14.4686 7.34856 14.2519 7.72837 14.0091 8.13882C13.7663 8.54928 13.5539 8.90204 13.3718 9.19651C13.1897 9.49099 12.9517 9.87139 12.6586 10.3383C12.3654 10.8053 12.1439 11.1605 11.9939 11.405C11.824 11.1286 11.5436 10.6737 11.1533 10.0409C10.763 9.40805 10.4249 8.85397 10.1396 8.37921C9.85432 7.90445 9.58422 7.44471 9.32929 7C9.05432 7.0601 8.82974 7.09014 8.65554 7.09014C8.45341 7.09014 8.2349 7.0601 8 7C8.37633 7.55709 8.74234 8.13161 9.09863 8.72476C9.45493 9.31791 9.89256 10.0679 10.4127 10.9754C10.9329 11.8828 11.2734 12.4748 11.4355 12.7512L11.3566 17C11.6158 16.9561 11.8282 16.9339 11.9939 16.9339C12.1681 16.9339 12.3806 16.9561 12.6313 17Z" fill="#202020"/>
</svg>
